<?xml version="1.0" standalone="no"?>
<!DOCTYPE svg PUBLIC "-//W3C//DTD SVG 20010904//EN"
 "http://www.w3.org/TR/2001/REC-SVG-20010904/DTD/svg10.dtd">
<svg version="1.0" xmlns="http://www.w3.org/2000/svg"
 width="200.000000pt" height="200.000000pt" viewBox="0 0 200.000000 200.000000"
 preserveAspectRatio="xMidYMid meet">
<metadata>
Created by potrace 1.16, written by Peter Selinger 2001-2019
</metadata>
<g transform="translate(0.000000,200.000000) scale(0.100000,-0.100000)"
fill="#e5e5eb" stroke="none">
<path d="M431 1935 c-98 -39 -203 -108 -260 -171 -107 -115 -207 -334 -153
-334 5 0 19 28 32 63 69 195 215 343 405 412 67 25 90 45 67 59 -5 3 -46 -10
-91 -29z"/>
<path d="M450 1807 c-117 -48 -208 -133 -260 -242 -37 -77 -41 -108 -17 -113
9 -2 17 2 17 10 0 22 59 139 91 179 40 51 115 105 186 134 53 21 74 44 48 51
-5 2 -35 -7 -65 -19z"/>
<path d="M895 1789 c-90 -13 -162 -37 -246 -80 -198 -103 -339 -277 -401 -496
-31 -110 -31 -295 0 -406 80 -282 294 -491 577 -562 101 -26 275 -24 380 4
279 74 494 289 565 567 28 109 28 279 0 389 -99 389 -477 642 -875 584z m271
-95 c132 -27 287 -120 374 -224 97 -116 167 -282 156 -369 -20 -150 -167 -295
-370 -363 -84 -28 -96 -28 -96 1 0 10 -13 38 -30 63 -102 155 -359 121 -412
-54 -6 -21 -12 -38 -13 -38 -17 0 -147 51 -200 78 -98 51 -205 158 -233 235
-29 78 -28 131 7 227 74 202 234 357 440 427 124 41 235 46 377 17z m514 -886
c-71 -236 -272 -426 -512 -483 -91 -21 -238 -19 -332 5 -164 42 -319 151 -411
290 -50 75 -89 162 -101 225 l-7 40 73 -68 c83 -77 207 -144 318 -173 69 -18
71 -19 87 -61 10 -25 35 -59 61 -82 107 -94 270 -72 345 47 16 25 29 53 29 61
0 11 21 21 72 33 39 10 108 36 153 58 84 42 206 134 225 171 22 40 22 9 0 -63z
m-600 -7 c46 -24 85 -97 76 -143 -15 -80 -75 -131 -154 -131 -106 0 -178 129
-122 221 42 68 129 91 200 53z"/>
<path d="M980 763 c-36 -13 -60 -47 -60 -84 0 -51 8 -67 41 -84 43 -23 77 -18
110 14 47 48 38 116 -21 146 -30 16 -45 17 -70 8z"/>
<path d="M1946 528 c-81 -210 -238 -366 -444 -440 -46 -16 -62 -27 -62 -41 0
-21 8 -20 105 19 199 80 342 222 422 419 35 87 40 115 20 115 -7 0 -26 -33
-41 -72z"/>
<path d="M1786 528 c-51 -143 -171 -257 -328 -311 -23 -8 -23 -37 -1 -37 41 0
186 83 241 138 85 85 163 251 122 259 -10 3 -21 -13 -34 -49z"/>
</g>
</svg>
